<?xml version="1.0" encoding="UTF-8" standalone="no"?>
<!DOCTYPE svg PUBLIC "-//W3C//DTD SVG 1.1//EN" "http://www.w3.org/Graphics/SVG/1.1/DTD/svg11.dtd">
<svg xmlns="http://www.w3.org/2000/svg" version="1.1" viewBox="0.00 0.00 158.00 32.00">
<path fill="none" stroke-width="1.00" stroke="#1c1b20" vector-effect="non-scaling-stroke" d="
  M 6.14 0.00
  C 9.44 0.69 12.95 0.48 15.07 3.52
  C 16.71 5.86 16.13 12.11 16.07 14.03
  A 0.21 0.21 0.0 0 1 15.69 14.15
  Q 13.60 11.04 9.74 8.78
  Q 6.41 6.82 5.52 5.35
  Q 4.17 3.13 4.69 0.00
  L 6.14 0.00
  Z"
/>
<path fill="none" stroke-width="1.00" stroke="#1c1b20" vector-effect="non-scaling-stroke" d="
  M 28.39 0.00
  Q 29.03 2.55 27.91 4.98
  Q 27.07 6.82 24.99 7.90
  Q 20.52 10.22 17.73 13.96
  A 0.32 0.32 0.0 0 1 17.15 13.78
  Q 17.02 11.83 17.20 6.99
  C 17.43 0.53 22.32 1.30 26.90 0.00
  L 28.39 0.00
  Z"
/>
<path fill="none" stroke-width="1.00" stroke="#1a1919" vector-effect="non-scaling-stroke" d="
  M 77.22 0.00
  L 77.32 8.15
  A 0.29 0.28 70.1 0 0 77.78 8.37
  C 81.62 5.30 86.87 6.68 87.34 12.00
  Q 87.36 12.23 87.40 20.42
  A 0.57 0.57 0.0 0 1 86.83 21.00
  L 85.80 21.00
  A 0.55 0.54 0.0 0 1 85.25 20.46
  L 85.25 12.49
  A 3.66 3.65 90.0 0 0 81.60 8.83
  L 81.00 8.83
  A 3.75 3.75 0.0 0 0 77.25 12.58
  L 77.25 20.53
  A 0.45 0.45 0.0 0 1 76.80 20.98
  L 75.57 20.98
  A 0.48 0.47 90.0 0 1 75.10 20.50
  L 75.08 0.00
  L 77.22 0.00
  Z"
/>
<path fill="none" stroke-width="1.00" stroke="#1a1919" vector-effect="non-scaling-stroke" d="
  M 61.23 14.07
  C 61.26 19.14 65.87 20.41 69.95 18.09
  A 0.81 0.81 0.0 0 1 71.05 18.39
  L 71.18 18.62
  A 0.93 0.92 59.9 0 1 70.85 19.88
  C 65.52 23.04 59.10 20.51 59.06 14.09
  C 59.03 7.66 65.42 5.07 70.79 8.16
  A 0.93 0.92 -60.5 0 1 71.13 9.42
  L 71.00 9.65
  A 0.81 0.81 0.0 0 1 69.90 9.96
  C 65.80 7.69 61.20 9.01 61.23 14.07
  Z"
/>
<path fill="none" stroke-width="1.00" stroke="#1a1919" vector-effect="non-scaling-stroke" d="
  M 105.00 14.07
  Q 105.00 20.35 104.99 20.38
  A 0.91 0.90 89.7 0 1 104.32 21.07
  Q 103.20 21.32 102.82 19.96
  A 0.47 0.47 0.0 0 0 102.09 19.72
  C 97.20 23.56 91.00 19.93 91.00 14.06
  C 91.00 8.19 97.21 4.57 102.09 8.41
  A 0.47 0.47 0.0 0 0 102.82 8.17
  Q 103.20 6.81 104.32 7.06
  A 0.91 0.90 -89.7 0 1 105.00 7.75
  Q 105.00 7.78 105.00 14.07
  Z
  M 97.9913 8.7024
  A 5.35 5.01 -91.7 0 0 93.1422 14.1986
  A 5.35 5.01 -91.7 0 0 98.3087 19.3976
  A 5.35 5.01 -91.7 0 0 103.1578 13.9014
  A 5.35 5.01 -91.7 0 0 97.9913 8.7024
  Z"
/>
<path fill="none" stroke-width="1.00" stroke="#1a1919" vector-effect="non-scaling-stroke" d="
  M 112.81 8.38
  Q 113.07 8.12 113.34 7.69
  Q 113.46 7.49 114.15 7.27
  Q 120.08 5.35 121.99 11.09
  A 2.78 2.78 0.0 0 1 122.12 11.93
  L 122.12 20.54
  A 0.46 0.46 0.0 0 1 121.66 21.00
  L 120.52 21.00
  A 0.52 0.52 0.0 0 1 120.00 20.48
  L 120.00 12.48
  A 3.68 3.68 0.0 0 0 116.32 8.80
  L 115.69 8.80
  A 3.71 3.71 0.0 0 0 111.98 12.51
  L 111.98 20.43
  A 0.55 0.55 0.0 0 1 111.43 20.98
  L 110.43 20.98
  A 0.55 0.55 0.0 0 1 109.88 20.43
  L 109.88 8.01
  A 1.05 1.05 0.0 0 1 111.95 7.73
  L 112.07 8.17
  A 0.45 0.44 60.5 0 0 112.81 8.38
  Z"
/>
<path fill="none" stroke-width="1.00" stroke="#1a1919" vector-effect="non-scaling-stroke" d="
  M 137.64 8.34
  L 137.64 7.65
  A 0.53 0.52 -0.0 0 1 138.17 7.13
  L 139.09 7.13
  A 0.64 0.63 -0.0 0 1 139.73 7.76
  Q 139.79 17.37 139.70 20.71
  C 139.51 27.93 130.83 28.78 126.34 24.87
  A 0.62 0.62 0.0 0 1 126.25 24.02
  L 126.89 23.17
  A 0.49 0.48 -47.8 0 1 127.63 23.13
  C 131.15 26.93 138.27 25.75 137.59 19.25
  A 0.31 0.30 -22.9 0 0 137.09 19.05
  Q 133.69 21.80 130.49 20.54
  C 123.52 17.79 124.24 7.75 132.01 6.83
  Q 134.91 6.49 137.07 8.58
  A 0.34 0.34 0.0 0 0 137.64 8.34
  Z
  M 137.92 13.83
  A 5.07 5.07 0.0 0 0 132.85 8.76
  A 5.07 5.07 0.0 0 0 127.78 13.83
  A 5.07 5.07 0.0 0 0 132.85 18.90
  A 5.07 5.07 0.0 0 0 137.92 13.83
  Z"
/>
<path fill="none" stroke-width="1.00" stroke="#1a1919" vector-effect="non-scaling-stroke" d="
  M 145.84 15.57
  C 147.29 19.48 151.41 20.63 154.57 18.05
  A 0.94 0.94 0.0 0 1 155.98 18.31
  L 156.16 18.62
  A 0.81 0.81 0.0 0 1 155.90 19.70
  Q 151.35 22.64 147.15 20.36
  C 143.64 18.46 142.68 13.71 144.64 10.21
  Q 146.64 6.63 151.34 6.77
  A 5.66 5.66 0.0 0 1 156.09 9.61
  L 157.39 11.86
  A 2.01 2.01 0.0 0 1 155.65 14.88
  L 146.32 14.88
  A 0.51 0.51 0.0 0 0 145.84 15.57
  Z
  M 146.10 13.01
  L 155.06 12.97
  A 0.19 0.19 0.0 0 0 155.25 12.78
  L 155.25 12.67
  A 4.52 3.94 -0.2 0 0 150.71 8.75
  L 150.41 8.75
  A 4.52 3.94 -0.2 0 0 145.91 12.71
  L 145.91 12.82
  A 0.19 0.19 0.0 0 0 146.10 13.01
  Z"
/>
<path fill="none" stroke-width="1.00" stroke="#1a1919" vector-effect="non-scaling-stroke" d="
  M 50.33 12.18
  Q 50.36 12.18 50.40 12.18
  A 0.20 0.08 -0.3 0 0 50.53 12.13
  L 54.03 7.50
  A 1.33 1.32 -71.3 0 1 55.09 6.97
  L 56.24 6.97
  A 0.39 0.39 0.0 0 1 56.54 7.60
  Q 53.81 10.95 51.83 13.69
  A 0.16 0.02 -89.3 0 0 51.81 13.84
  Q 51.80 13.87 51.80 13.91
  Q 51.80 13.95 51.80 13.98
  A 0.16 0.02 89.5 0 0 51.83 14.13
  Q 53.80 16.88 56.52 20.24
  A 0.39 0.39 0.0 0 1 56.22 20.87
  L 55.07 20.87
  A 1.33 1.32 71.5 0 1 54.01 20.33
  L 50.52 15.69
  A 0.20 0.08 0.5 0 0 50.39 15.64
  Q 50.36 15.63 50.32 15.63
  Q 50.29 15.63 50.25 15.64
  A 0.20 0.08 -0.3 0 0 50.12 15.69
  L 46.62 20.32
  A 1.33 1.32 -71.3 0 1 45.56 20.85
  L 44.41 20.85
  A 0.39 0.39 0.0 0 1 44.11 20.22
  Q 46.84 16.87 48.82 14.13
  A 0.16 0.02 -89.3 0 0 48.84 13.98
  Q 48.84 13.94 48.84 13.91
  Q 48.84 13.87 48.84 13.83
  A 0.16 0.02 89.5 0 0 48.82 13.68
  Q 46.85 10.93 44.13 7.58
  A 0.39 0.39 0.0 0 1 44.43 6.95
  L 45.58 6.95
  A 1.33 1.32 71.5 0 1 46.64 7.48
  L 50.13 12.12
  A 0.20 0.08 0.5 0 0 50.26 12.18
  Q 50.29 12.18 50.33 12.18
  Z"
/>
<path fill="none" stroke-width="1.00" stroke="#1c1b20" vector-effect="non-scaling-stroke" d="
  M 0.00 31.31
  L 0.00 24.16
  C 0.99 20.63 2.78 18.27 6.19 16.60
  C 9.18 15.12 10.98 14.65 12.06 12.80
  A 0.69 0.69 0.0 0 1 13.19 12.71
  Q 17.77 18.35 15.32 25.53
  Q 14.75 27.21 11.89 29.01
  A 2.67 2.56 19.7 0 1 11.13 29.35
  Q 6.87 30.50 1.87 31.58
  Q 0.88 31.79 0.00 31.31
  Z"
/>
<path fill="none" stroke-width="1.00" stroke="#1c1b20" vector-effect="non-scaling-stroke" d="
  M 21.00 12.69
  Q 21.17 12.80 21.46 13.35
  A 1.40 1.36 1.3 0 0 21.96 13.86
  C 25.68 16.13 32.41 17.75 33.10 24.53
  Q 33.44 27.79 33.19 30.55
  A 1.32 1.32 0.0 0 1 31.56 31.71
  L 21.93 29.30
  A 2.67 2.60 -21.3 0 1 21.20 28.99
  Q 17.61 26.75 17.20 22.34
  Q 16.61 15.97 20.19 12.76
  A 0.66 0.66 0.0 0 1 21.00 12.69
  Z"
/>

</svg>
