<?xml version="1.0" encoding="UTF-8" standalone="no"?>
<!DOCTYPE svg PUBLIC "-//W3C//DTD SVG 1.1//EN" "http://www.w3.org/Graphics/SVG/1.1/DTD/svg11.dtd">
<svg xmlns="http://www.w3.org/2000/svg" version="1.1" viewBox="0.00 0.00 158.00 32.00">
<path fill="none" stroke-width="1.00" stroke="#1c1b20" vector-effect="non-scaling-stroke" d="
  M 6.14 0.00
  C 9.44 0.69 12.95 0.48 15.07 3.52
  C 16.71 5.86 16.13 12.11 16.07 14.03
  A 0.21 0.21 0.0 0 1 15.69 14.15
  Q 13.60 11.04 9.74 8.78
  Q 6.41 6.82 5.52 5.35
  Q 4.17 3.13 4.69 0.00
  L 6.14 0.00
  Z"
/>
<path fill="none" stroke-width="1.00" stroke="#1c1b20" vector-effect="non-scaling-stroke" d="
  M 28.39 0.00
  Q 29.03 2.55 27.91 4.98
  Q 27.07 6.82 24.99 7.90
  Q 20.52 10.22 17.73 13.96
  A 0.32 0.32 0.0 0 1 17.15 13.78
  Q 17.02 11.83 17.20 6.99
  C 17.43 0.53 22.32 1.30 26.90 0.00
  L 28.39 0.00
  Z"
/>
<path fill="none" stroke-width="1.00" stroke="#1a1919" vector-effect="non-scaling-stroke" d="
  M 77.22 0.00
  L 77.32 8.15
  A 0.29 0.28 70.1 0 0 77.78 8.37
  C 81.62 5.30 86.87 6.68 87.34 12.00
  Q 87.36 12.23 87.40 20.42
  A 0.57 0.57 0.0 0 1 86.83 21.00
  L 85.80 21.00
  A 0.55 0.54 0.0 0 1 85.25 20.46
  L 85.25 12.49
  A 3.66 3.65 90.0 0 0 81.60 8.83
  L 81.00 8.83
  A 3.75 3.75 0.0 0 0 77.25 12.58
  L 77.25 20.53
  A 0.45 0.45 0.0 0 1 76.80 20.98
  L 75.57 20.98
  A 0.48 0.47 90.0 0 1 75.10 20.50
  L 75.08 0.00
  L 77.22 0.00
  Z"
/>
<path fill="none" stroke-width="1.00" stroke="#1a1919" vector-effect="non-scaling-stroke" d="
  M 61.23 14.07
  C 61.26 19.14 65.87 20.41 69.95 18.09
  A 0.81 0.81 0.0 0 1 71.05 18.39
  L 71.18 18.62
  A 0.93 0.92 59.9 0 1 70.85 19.88
  C 65.52 23.04 59.10 20.51 59.06 14.09
  C 59.03 7.66 65.42 5.07 70.79 8.16
  A 0.93 0.92 -60.5 0 1 71.13 9.42
  L 71.00 9.65
  A 0.81 0.81 0.0 0 1 69.90 9.96
  C 65.80 7.69 61.20 9.01 61.23 14.07
  Z"
/>
<path fill="none" stroke-width="1.00" stroke="#1a1919" vector-effect="non-scaling-stroke" d="
  M 105.00 14.07
  Q 105.00 20.35 104.99 20.38
  A 0.91 0.90 89.7 0 1 104.32 21.07
  Q 103.20 21.32 102.82 19.96
  A 0.47 0.47 0.0 0 0 102.09 19.72
  C 97.20 23.56 91.00 19.93 91.00 14.06
  C 91.00 8.19 97.21 4.57 102.09 8.41
  A 0.47 0.47 0.0 0 0 102.82 8.17
  Q 103.20 6.81 104.32 7.06
  A 0.91 0.90 -89.7 0 1 105.00 7.75
  Q 105.00 7.78 105.00 14.07
  Z
  M 97.9913 8.7024
  A 5.35 5.01 -91.7 0 0 93.1422 14.1986
  A 5.35 5.01 -91.7 0 0 98.3087 19.3976
  A 5.35 5.01 -91.7 0 0 103.1578 13.9014
  A 5.35 5.01 -91.7 0 0 97.9913 8.7024
  Z"
/>
<path fill="none" stroke-width="1.00" stroke="#1a1919" vector-effect="non-scaling-stroke" d="
  M 112.81 8.38
  Q 113.07 8.12 113.34 7.69
  Q 113.46 7.49 114.15 7.27
  Q 120.08 5.35 121.99 11.09
  A 2.78 2.78 0.0 0 1 122.12 11.93
  L 122.12 20.54
  A 0.46 0.46 0.0 0 1 121.66 21.00
  L 120.52 21.00
  A 0.52 0.52 0.0 0 1 120.00 20.48
  L 120.00 12.48
  A 3.68 3.68 0.0 0 0 116.32 8.80
  L 115.69 8.80
  A 3.71 3.71 0.0 0 0 111.98 12.51
  L 111.98 20.43
  A 0.55 0.55 0.0 0 1 111.43 20.98
  L 110.43 20.98
  A 0.55 0.55 0.0 0 1 109.88 20.43
  L 109.88 8.01
  A 1.05 1.05 0.0 0 1 111.95 7.73
  L 112.07 8.17
  A 0.45 0.44 60.5 0 0 112.81 8.38
  Z"
/>
<path fill="none" stroke-width="1.00" stroke="#1a1919" vector-effect="non-scaling-stroke" d="
  M 137.64 8.34
  L 137.64 7.65
  A 0.53 0.52 -0.0 0 1 138.17 7.13
  L 139.09 7.13
  A 0.64 0.63 -0.0 0 1 139.73 7.76
  Q 139.79 17.37 139.70 20.71
  C 139.51 27.93 130.83 28.78 126.34 24.87
  A 0.62 0.62 0.0 0 1 126.25 24.02
  L 126.89 23.17
  A 0.49 0.48 -47.8 0 1 127.63 23.13
  C 131.15 26.93 138.27 25.75 137.59 19.25
  A 0.31 0.30 -22.9 0 0 137.09 19.05
  Q 133.69 21.80 130.49 20.54
  C 123.52 17.79 124.24 7.75 132.01 6.83
  Q 134.91 6.49 137.07 8.58
  A 0.34 0.34 0.0 0 0 137.64 8.34
  Z
  M 137.92 13.83
  A 5.07 5.07 0.0 0 0 132.85 8.76
  A 5.07 5.07 0.0 0 0 127.78 13.83
  A 5.07 5.07 0.0 0 0 132.85 18.90
  A 5.07 5.07 0.0 0 0 137.92 13.83
  Z"
/>
<path fill="none" stroke-width="1.00" stroke="#1a1919" vector-effect="non-scaling-stroke" d="
  M 145.84 15.57
  C 147.29 19.48 151.41 20.63 154.57 18.05
  A 0.94 0.94 0.0 0 1 155.98 18.31
  L 156.16 18.62
  A 0.81 0.81 0.0 0 1 155.90 19.70
  Q 151.35 22.64 147.15 20.36
  C 143.64 18.46 142.68 13.71 144.64 10.21
  Q 146.64 6.63 151.34 6.77
  A 5.66 5.66 0.0 0 1 156.09 9.61
  L 157.39 11.86
  A 2.01 2.01 0.0 0 1 155.65 14.88
  L 146.32 14.88
  A 0.51 0.51 0.0 0 0 145.84 15.57
  Z
  M 146.10 13.01
  L 155.06 12.97
  A 0.19 0.19 0.0 0 0 155.25 12.78
  L 155.25 12.67
  A 4.52 3.94 -0.2 0 0 150.71 8.75
  L 150.41 8.75
  A 4.52 3.94 -0.2 0 0 145.91 12.71
  L 145.91 12.82
  A 0.19 0.19 0.0 0 0 146.10 13.01
  Z"
/>
<path fill="none" stroke-width="1.00" stroke="#1a1919" vector-effect="non-scaling-stroke" d="
  M 50.33 12.18
  Q 50.36 12.18 50.40 12.18
  A 0.20 0.08 -0.3 0 0 50.53 12.13
  L 54.03 7.50
  A 1.33 1.32 -71.3 0 1 55.09 6.97
  L 56.24 6.97
  A 0.39 0.39 0.0 0 1 56.54 7.60
  Q 53.81 10.95 51.83 13.69
  A 0.16 0.02 -89.3 0 0 51.81 13.84
  Q 51.80 13.87 51.80 13.91
  Q 51.80 13.95 51.80 13.98
  A 0.16 0.02 89.5 0 0 51.83 14.13
  Q 53.80 16.88 56.52 20.24
  A 0.39 0.39 0.0 0 1 56.22 20.87
  L 55.07 20.87
  A 1.33 1.32 71.5 0 1 54.01 20.33
  L 50.52 15.69
  A 0.20 0.08 0.5 0 0 50.39 15.64
  Q 50.36 15.63 50.32 15.63
  Q 50.29 15.63 50.25 15.64
  A 0.20 0.08 -0.3 0 0 50.12 15.69
  L 46.62 20.32
  A 1.33 1.32 -71.3 0 1 45.56 20.85
  L 44.41 20.85
  A 0.39 0.39 0.0 0 1 44.11 20.22
  Q 46.84 16.87 48.82 14.13
  A 0.16 0.02 -89.3 0 0 48.84 13.98
  Q 48.84 13.94 48.84 13.91
  Q 48.84 13.87 48.84 13.83
  A 0.16 0.02 89.5 0 0 48.82 13.68
  Q 46.85 10.93 44.13 7.58
  A 0.39 0.39 0.0 0 1 44.43 6.95
  L 45.58 6.95
  A 1.33 1.32 71.5 0 1 46.64 7.48
  L 50.13 12.12
  A 0.20 0.08 0.5 0 0 50.26 12.18
  Q 50.29 12.18 50.33 12.18
  Z"
/>
<path fill="none" stroke-width="1.00" stroke="#1c1b20" vector-effect="non-scaling-stroke" d="
  M 0.00 31.31
  L 0.00 24.16
  C 0.99 20.63 2.78 18.27 6.19 16.60
  C 9.18 15.12 10.98 14.65 12.06 12.80
  A 0.69 0.69 0.0 0 1 13.19 12.71
  Q 17.77 18.35 15.32 25.53
  Q 14.75 27.21 11.89 29.01
  A 2.67 2.56 19.7 0 1 11.13 29.35
  Q 6.87 30.50 1.87 31.58
  Q 0.88 31.79 0.00 31.31
  Z"
/>
<path fill="none" stroke-width="1.00" stroke="#1c1b20" vector-effect="non-scaling-stroke" d="
  M 21.00 12.69
  Q 21.17 12.80 21.46 13.35
  A 1.40 1.36 1.3 0 0 21.96 13.86
  C 25.68 16.13 32.41 17.75 33.10 24.53
  Q 33.44 27.79 33.19 30.55
  A 1.32 1.32 0.0 0 1 31.56 31.71
  L 21.93 29.30
  A 2.67 2.60 -21.3 0 1 21.20 28.99
  Q 17.61 26.75 17.20 22.34
  Q 16.61 15.97 20.19 12.76
  A 0.66 0.66 0.0 0 1 21.00 12.69
  Z"
/>
<path fill="none" stroke-width="1.00" stroke="#1a1919" vector-effect="non-scaling-stroke" d="
  M 44.04 27.36
  A 0.26 0.26 0.0 0 1 43.61 27.09
  Q 43.69 26.88 43.73 26.81
  A 0.31 0.31 0.0 0 1 44.29 26.87
  Q 44.35 27.04 44.04 27.36
  Z"
/>
<path fill="none" stroke-width="1.00" stroke="#1a1919" vector-effect="non-scaling-stroke" d="
  M 52.79 27.02
  A 0.17 0.17 0.0 0 1 52.64 27.08
  Q 51.96 27.00 52.89 26.50
  A 0.13 0.12 -84.0 0 1 53.04 26.69
  L 52.79 27.02
  Z"
/>
<path fill="none" stroke-width="1.00" stroke="#1a1919" vector-effect="non-scaling-stroke" d="
  M 54.48 27.03
  A 0.21 0.20 -48.0 0 1 54.46 26.63
  Q 54.90 26.50 55.03 26.68
  A 0.25 0.25 0.0 0 1 54.79 27.08
  Q 54.69 27.07 54.48 27.03
  Z"
/>
<path fill="none" stroke-width="1.00" stroke="#1a1919" vector-effect="non-scaling-stroke" d="
  M 78.07 26.82
  Q 77.93 26.78 77.78 26.71
  A 0.06 0.06 0.0 0 1 77.80 26.60
  Q 77.99 26.59 78.14 26.64
  A 0.10 0.09 -25.6 0 1 78.07 26.82
  Z"
/>
<path fill="none" stroke-width="1.00" stroke="#1a1919" vector-effect="non-scaling-stroke" d="
  M 97.23 29.49
  L 97.46 29.90
  A 0.20 0.20 0.0 0 1 97.21 30.18
  Q 96.89 30.05 96.78 29.86
  A 0.37 0.08 55.8 0 1 96.67 29.58
  L 97.33 26.69
  A 0.17 0.11 -72.3 0 1 97.50 26.55
  Q 97.53 26.56 97.56 26.57
  A 0.09 0.08 13.2 0 1 97.63 26.67
  L 97.14 28.93
  A 0.82 0.79 -55.0 0 0 97.23 29.49
  Z"
/>
<path fill="none" stroke-width="1.00" stroke="#1a1919" vector-effect="non-scaling-stroke" d="
  M 87.24 27.00
  Q 87.22 27.03 87.22 27.11
  A 0.13 0.05 38.4 0 1 87.06 27.06
  Q 86.97 26.97 86.94 26.95
  A 0.11 0.04 63.8 0 1 86.93 26.79
  Q 87.02 26.85 87.08 26.81
  A 0.13 0.12 -89.0 0 1 87.24 27.00
  Z"
/>
<path fill="none" stroke-width="1.00" stroke="#1a1919" vector-effect="non-scaling-stroke" d="
  M 57.95 27.82
  Q 57.76 27.78 57.60 27.73
  A 0.12 0.09 57.1 0 1 57.62 27.52
  Q 57.80 27.57 57.95 27.82
  Z"
/>
<path fill="none" stroke-width="1.00" stroke="#1a1919" vector-effect="non-scaling-stroke" d="
  M 60.58 27.91
  Q 60.68 27.67 61.05 27.61
  A 0.35 0.29 0.6 0 1 61.46 27.96
  Q 61.40 28.20 60.79 28.20
  A 0.22 0.21 9.8 0 1 60.58 27.91
  Z"
/>
<path fill="none" stroke-width="1.00" stroke="#1a1919" vector-effect="non-scaling-stroke" d="
  M 67.71 28.22
  Q 67.52 28.20 67.35 28.05
  A 0.26 0.25 -39.7 0 1 67.39 27.64
  Q 67.63 27.51 67.81 27.55
  A 0.34 0.34 0.0 0 1 67.71 28.22
  Z"
/>
<path fill="none" stroke-width="1.00" stroke="#1a1919" vector-effect="non-scaling-stroke" d="
  M 84.70 27.65
  Q 85.11 27.58 85.16 27.60
  A 0.33 0.33 0.0 0 1 85.19 28.18
  Q 84.93 28.33 84.67 28.26
  A 0.31 0.31 0.0 0 1 84.70 27.65
  Z"
/>
<path fill="none" stroke-width="1.00" stroke="#1a1919" vector-effect="non-scaling-stroke" d="
  M 92.36 28.17
  Q 91.99 28.21 91.84 28.10
  A 0.24 0.24 0.0 0 1 92.00 27.67
  Q 92.05 27.68 92.38 27.74
  A 0.22 0.22 0.0 0 1 92.36 28.17
  Z"
/>
<path fill="none" stroke-width="1.00" stroke="#1a1919" vector-effect="non-scaling-stroke" d="
  M 99.88 27.96
  L 98.98 29.15
  A 0.09 0.09 0.0 0 1 98.81 29.08
  Q 98.97 28.04 99.70 27.73
  A 0.15 0.15 0.0 0 1 99.88 27.96
  Z"
/>
<path fill="none" stroke-width="1.00" stroke="#1a1919" vector-effect="non-scaling-stroke" d="
  M 103.46 27.90
  A 0.16 0.16 0.0 0 1 103.57 27.63
  L 104.11 27.63
  A 0.12 0.11 20.4 0 1 104.20 27.82
  Q 103.84 28.24 103.46 27.90
  Z"
/>
<path fill="none" stroke-width="1.00" stroke="#1a1919" vector-effect="non-scaling-stroke" d="
  M 114.80 28.68
  A 0.29 0.29 0.0 0 1 114.31 28.39
  Q 114.48 27.99 114.66 27.81
  A 0.30 0.30 0.0 0 1 115.15 28.13
  Q 115.06 28.35 114.80 28.68
  Z"
/>
<path fill="none" stroke-width="1.00" stroke="#1a1919" vector-effect="non-scaling-stroke" d="
  M 119.19 28.18
  Q 119.06 28.24 118.61 28.13
  A 0.29 0.29 0.0 0 1 118.50 27.62
  Q 118.57 27.57 119.06 27.58
  A 0.32 0.31 33.1 0 1 119.19 28.18
  Z"
/>
<path fill="none" stroke-width="1.00" stroke="#1a1919" vector-effect="non-scaling-stroke" d="
  M 54.16 28.05
  Q 54.21 28.01 54.80 27.86
  A 0.21 0.21 0.0 0 1 55.02 28.19
  Q 54.93 28.31 54.43 28.49
  A 0.26 0.26 0.0 0 1 54.16 28.05
  Z"
/>
<path fill="none" stroke-width="1.00" stroke="#1a1919" vector-effect="non-scaling-stroke" d="
  M 57.95 27.82
  Q 59.41 28.31 59.29 29.72
  Q 59.26 30.02 58.95 30.12
  A 0.21 0.21 0.0 0 1 58.69 29.86
  Q 59.16 28.42 57.95 27.82
  Z"
/>
<path fill="none" stroke-width="1.00" stroke="#1a1919" vector-effect="non-scaling-stroke" d="
  M 66.00 30.22
  Q 65.50 29.85 65.69 27.98
  A 0.23 0.21 -15.7 0 1 65.79 27.82
  Q 65.94 27.73 66.39 27.92
  A 0.20 0.20 0.0 0 1 66.45 28.25
  Q 66.10 28.57 66.44 29.93
  A 0.28 0.28 0.0 0 1 66.00 30.22
  Z"
/>
<path fill="none" stroke-width="1.00" stroke="#1a1919" vector-effect="non-scaling-stroke" d="
  M 70.25 28.26
  Q 69.92 28.25 69.69 28.01
  A 0.27 0.26 71.5 0 1 69.91 27.56
  Q 70.09 27.58 70.39 27.74
  A 0.28 0.28 0.0 0 1 70.25 28.26
  Z"
/>
<path fill="none" stroke-width="1.00" stroke="#1a1919" vector-effect="non-scaling-stroke" d="
  M 72.37 28.08
  Q 72.39 27.89 72.77 27.72
  A 0.16 0.16 0.0 0 1 72.92 28.01
  Q 72.52 28.24 72.48 28.23
  A 0.13 0.13 0.0 0 1 72.37 28.08
  Z"
/>
<path fill="none" stroke-width="1.00" stroke="#1a1919" vector-effect="non-scaling-stroke" d="
  M 74.27 28.35
  Q 73.86 28.23 73.68 28.11
  A 0.23 0.23 0.0 0 1 73.88 27.70
  Q 74.10 27.76 74.34 28.01
  Q 74.51 28.19 74.35 28.33
  A 0.10 0.08 24.7 0 1 74.27 28.35
  Z"
/>
<path fill="none" stroke-width="1.00" stroke="#1a1919" vector-effect="non-scaling-stroke" d="
  M 82.30 27.87
  Q 82.72 28.10 82.74 28.15
  A 0.21 0.20 68.9 0 1 82.63 28.42
  Q 82.44 28.48 82.09 28.18
  A 0.19 0.19 0.0 0 1 82.30 27.87
  Z"
/>
<path fill="none" stroke-width="1.00" stroke="#1a1919" vector-effect="non-scaling-stroke" d="
  M 88.98 27.95
  A 0.10 0.10 0.0 0 1 88.89 28.12
  Q 88.77 28.08 88.67 27.96
  A 0.05 0.05 0.0 0 1 88.72 27.88
  Q 88.95 27.93 88.98 27.95
  Z"
/>
<path fill="none" stroke-width="1.00" stroke="#1a1919" vector-effect="non-scaling-stroke" d="
  M 94.55 27.94
  Q 95.07 27.43 95.25 27.46
  A 0.33 0.33 0.0 0 1 95.30 28.12
  L 94.72 28.26
  A 0.19 0.19 0.0 0 1 94.55 27.94
  Z"
/>
<path fill="none" stroke-width="1.00" stroke="#1a1919" vector-effect="non-scaling-stroke" d="
  M 106.43 28.16
  Q 106.47 28.49 106.46 28.50
  A 0.42 0.40 71.9 0 1 105.74 28.11
  Q 105.86 27.77 106.28 27.95
  A 0.25 0.25 0.0 0 1 106.43 28.16
  Z"
/>
<path fill="none" stroke-width="1.00" stroke="#1a1919" vector-effect="non-scaling-stroke" d="
  M 108.38 28.14
  Q 108.42 28.03 108.56 27.88
  A 0.05 0.05 0.0 0 1 108.65 27.92
  Q 108.67 28.27 108.65 28.29
  A 0.16 0.15 71.3 0 1 108.38 28.14
  Z"
/>
<path fill="none" stroke-width="1.00" stroke="#1a1919" vector-effect="non-scaling-stroke" d="
  M 116.37 27.91
  Q 117.42 28.31 117.22 29.95
  A 0.15 0.15 0.0 0 1 117.18 30.02
  Q 116.99 30.20 116.75 30.03
  A 0.18 0.17 34.2 0 1 116.70 29.79
  Q 117.29 28.86 116.27 28.10
  A 0.11 0.11 0.0 0 1 116.37 27.91
  Z"
/>
<path fill="none" stroke-width="1.00" stroke="#1a1919" vector-effect="non-scaling-stroke" d="
  M 44.33 30.14
  A 0.19 0.19 0.0 0 1 43.96 30.20
  Q 43.63 29.20 43.84 28.46
  A 0.25 0.25 0.0 0 1 44.33 28.53
  L 44.33 30.14
  Z"
/>
<path fill="none" stroke-width="1.00" stroke="#1a1919" vector-effect="non-scaling-stroke" d="
  M 46.56 29.09
  Q 46.57 28.95 46.86 28.19
  A 0.24 0.24 0.0 0 1 47.33 28.28
  Q 47.33 28.80 46.96 29.24
  A 0.23 0.22 -24.3 0 1 46.56 29.09
  Z"
/>
<ellipse fill="none" stroke-width="1.00" stroke="#1a1919" vector-effect="non-scaling-stroke" cx="0.00" cy="0.00" transform="translate(48.83,29.75) rotate(-66.7)" rx="1.82" ry="0.20"/>
<path fill="none" stroke-width="1.00" stroke="#1a1919" vector-effect="non-scaling-stroke" d="
  M 63.10 28.62
  Q 63.01 28.43 63.10 28.18
  A 0.19 0.18 64.1 0 1 63.45 28.31
  Q 63.42 28.40 63.23 28.64
  A 0.08 0.08 0.0 0 1 63.10 28.62
  Z"
/>
<path fill="none" stroke-width="1.00" stroke="#1a1919" vector-effect="non-scaling-stroke" d="
  M 81.19 29.70
  Q 81.42 29.92 82.61 29.96
  A 0.07 0.07 0.0 0 1 82.63 30.09
  Q 80.91 30.47 80.68 30.25
  Q 80.44 30.02 80.73 28.29
  A 0.07 0.07 0.0 0 1 80.86 28.30
  Q 80.96 29.48 81.19 29.70
  Z"
/>
<path fill="none" stroke-width="1.00" stroke="#1a1919" vector-effect="non-scaling-stroke" d="
  M 90.34 28.32
  Q 90.30 28.33 90.05 28.37
  A 0.06 0.05 -67.9 0 1 90.01 28.27
  Q 90.16 28.14 90.32 28.11
  A 0.11 0.10 -54.7 0 1 90.34 28.32
  Z"
/>
<path fill="none" stroke-width="1.00" stroke="#1a1919" vector-effect="non-scaling-stroke" d="
  M 101.83 28.20
  Q 101.86 28.20 102.34 29.17
  A 0.31 0.31 0.0 0 1 102.30 29.52
  Q 102.09 29.78 101.76 29.89
  A 0.13 0.13 0.0 0 1 101.60 29.71
  Q 101.98 28.87 101.65 28.45
  A 0.16 0.16 0.0 0 1 101.83 28.20
  Z"
/>
<path fill="none" stroke-width="1.00" stroke="#1a1919" vector-effect="non-scaling-stroke" d="
  M 112.67 28.41
  Q 112.74 28.68 112.73 28.71
  A 0.19 0.19 0.0 0 1 112.38 28.61
  Q 112.40 28.41 112.44 28.35
  A 0.13 0.13 0.0 0 1 112.67 28.41
  Z"
/>
<path fill="none" stroke-width="1.00" stroke="#1a1919" vector-effect="non-scaling-stroke" d="
  M 52.61 29.14
  A 0.14 0.14 0.0 0 1 52.41 28.95
  Q 52.51 28.82 52.58 28.75
  A 0.15 0.15 0.0 0 1 52.82 28.91
  Q 52.79 28.98 52.61 29.14
  Z"
/>
<path fill="none" stroke-width="1.00" stroke="#1a1919" vector-effect="non-scaling-stroke" d="
  M 93.11 29.31
  Q 93.16 29.56 93.03 29.84
  A 0.27 0.27 0.0 0 1 92.51 29.76
  Q 92.47 29.51 92.58 29.26
  A 0.28 0.27 -39.1 0 1 93.11 29.31
  Z"
/>
<path fill="none" stroke-width="1.00" stroke="#1a1919" vector-effect="non-scaling-stroke" d="
  M 70.88 29.88
  Q 70.87 29.50 70.87 29.12
  Q 70.88 29.06 70.88 29.12
  Q 70.88 29.50 70.88 29.88
  Z"
/>
<path fill="none" stroke-width="1.00" stroke="#1a1919" vector-effect="non-scaling-stroke" d="
  M 90.25 29.39
  Q 90.33 30.18 90.20 30.41
  A 0.26 0.26 0.0 0 1 89.72 30.34
  Q 89.57 29.74 89.74 29.32
  A 0.27 0.26 -36.9 0 1 90.25 29.39
  Z"
/>
<path fill="none" stroke-width="1.00" stroke="#1a1919" vector-effect="non-scaling-stroke" d="
  M 108.04 29.26
  Q 108.03 29.85 107.65 29.73
  A 0.19 0.18 -74.8 0 1 107.53 29.51
  L 107.61 29.20
  A 0.22 0.22 0.0 0 1 108.04 29.26
  Z"
/>
<path fill="none" stroke-width="1.00" stroke="#1a1919" vector-effect="non-scaling-stroke" d="
  M 64.36 30.55
  Q 63.51 30.35 63.31 30.05
  A 0.17 0.17 0.0 0 1 63.51 29.80
  Q 64.06 29.99 64.12 30.02
  A 0.39 0.16 43.2 0 1 64.36 30.55
  Z"
/>
<path fill="none" stroke-width="1.00" stroke="#1a1919" vector-effect="non-scaling-stroke" d="
  M 68.39 30.33
  A 0.12 0.12 0.0 0 1 68.23 30.15
  L 68.42 29.90
  A 0.11 0.10 -50.6 0 1 68.57 29.88
  Q 68.78 30.08 68.39 30.33
  Z"
/>
<path fill="none" stroke-width="1.00" stroke="#1a1919" vector-effect="non-scaling-stroke" d="
  M 84.96 30.58
  Q 84.58 30.61 84.18 30.31
  A 0.30 0.30 0.0 0 1 84.41 29.78
  Q 84.55 29.80 85.07 30.06
  A 0.28 0.28 0.0 0 1 84.96 30.58
  Z"
/>
<path fill="none" stroke-width="1.00" stroke="#1a1919" vector-effect="non-scaling-stroke" d="
  M 45.48 30.31
  Q 45.63 30.18 45.79 30.15
  A 0.16 0.15 -53.4 0 1 45.83 30.46
  Q 45.69 30.49 45.53 30.47
  A 0.09 0.09 0.0 0 1 45.48 30.31
  Z"
/>
<path fill="none" stroke-width="1.00" stroke="#1a1919" vector-effect="non-scaling-stroke" d="
  M 61.37 30.36
  Q 61.19 30.44 60.43 30.32
  A 0.22 0.22 0.0 0 1 60.41 29.89
  Q 60.80 29.81 61.35 29.99
  A 0.20 0.20 0.0 0 1 61.37 30.36
  Z"
/>
<path fill="none" stroke-width="1.00" stroke="#1a1919" vector-effect="non-scaling-stroke" d="
  M 72.89 30.46
  Q 72.62 30.44 72.39 30.26
  A 0.16 0.16 0.0 0 1 72.57 30.00
  Q 72.99 30.27 73.00 30.29
  A 0.12 0.11 -12.8 0 1 72.89 30.46
  Z"
/>
<path fill="none" stroke-width="1.00" stroke="#1a1919" vector-effect="non-scaling-stroke" d="
  M 74.16 29.99
  A 0.18 0.18 0.0 0 1 74.43 30.23
  Q 74.28 30.47 74.15 30.50
  A 0.21 0.21 0.0 0 1 73.92 30.18
  Q 73.93 30.18 74.16 29.99
  Z"
/>
<path fill="none" stroke-width="1.00" stroke="#1a1919" vector-effect="non-scaling-stroke" d="
  M 95.34 30.31
  A 0.26 0.26 0.0 0 1 95.08 30.76
  Q 94.71 30.60 94.60 30.51
  A 0.31 0.31 0.0 0 1 94.84 29.97
  Q 94.90 29.98 95.34 30.31
  Z"
/>
<path fill="none" stroke-width="1.00" stroke="#1a1919" vector-effect="non-scaling-stroke" d="
  M 112.39 30.29
  Q 112.41 30.20 112.41 30.19
  A 0.10 0.08 89.7 0 1 112.53 30.33
  Q 112.51 30.36 112.48 30.38
  A 0.08 0.05 80.5 0 1 112.39 30.29
  Z"
/>
<path fill="none" stroke-width="1.00" stroke="#1a1919" vector-effect="non-scaling-stroke" d="
  M 100.44 30.62
  Q 100.09 30.66 99.91 30.53
  A 0.18 0.18 0.0 0 1 99.91 30.23
  Q 100.00 30.17 100.42 30.17
  A 0.23 0.22 -48.0 0 1 100.44 30.62
  Z"
/>
<path fill="none" stroke-width="1.00" stroke="#1a1919" vector-effect="non-scaling-stroke" d="
  M 105.38 30.57
  Q 105.40 30.73 105.13 31.10
  A 0.61 0.60 -70.2 0 1 104.63 31.34
  L 103.20 31.27
  A 0.30 0.30 0.0 0 1 102.92 30.96
  L 102.92 30.95
  A 0.23 0.22 -73.4 0 1 103.21 30.79
  Q 104.34 31.19 104.96 30.45
  A 0.24 0.24 0.0 0 1 105.38 30.57
  Z"
/>
<path fill="none" stroke-width="1.00" stroke="#1a1919" vector-effect="non-scaling-stroke" d="
  M 109.51 30.43
  Q 109.79 30.57 109.69 30.90
  A 0.19 0.19 0.0 0 1 109.38 30.98
  L 109.23 30.85
  A 0.26 0.25 79.0 0 1 109.51 30.43
  Z"
/>
<path fill="none" stroke-width="1.00" stroke="#1a1919" vector-effect="non-scaling-stroke" d="
  M 119.25 30.58
  Q 119.14 30.65 118.77 30.58
  A 0.24 0.24 0.0 0 1 118.82 30.10
  Q 119.12 30.10 119.28 30.24
  A 0.21 0.21 0.0 0 1 119.25 30.58
  Z"
/>
<path fill="none" stroke-width="1.00" stroke="#1a1919" vector-effect="non-scaling-stroke" d="
  M 107.14 30.59
  A 0.25 0.25 0.0 0 1 107.58 30.82
  Q 107.47 31.16 107.43 31.21
  A 0.28 0.28 0.0 0 1 106.94 30.93
  Q 107.03 30.73 107.14 30.59
  Z"
/>
</svg>
